HIERARCHY
ROOT joint_Root
{
	OFFSET 0.0 0.0 0.0
	CHANNELS 6 Xposition Yposition Zposition Zrotation Xrotation Yrotation 
	JOINT Hips
	{
		OFFSET -0.726466 93.3139 -2.00062
		CHANNELS 6 Xposition Yposition Zposition Zrotation Xrotation Yrotation 
		JOINT Spine
		{
			OFFSET 15.7357 0.0 0.0
			CHANNELS 6 Xposition Yposition Zposition Zrotation Xrotation Yrotation 
			JOINT Chest
			{
				OFFSET 8.98455 -0.406207 0.0
				CHANNELS 6 Xposition Yposition Zposition Zrotation Xrotation Yrotation 
				JOINT Neck
				{
					OFFSET 16.3773 0.0 0.0
					CHANNELS 6 Xposition Yposition Zposition Zrotation Xrotation Yrotation 
					JOINT Head
					{
						OFFSET 6.45672 0.0 0.0
						CHANNELS 6 Xposition Yposition Zposition Zrotation Xrotation Yrotation 
						End Site
						{
							OFFSET 0.0 0.0 0.0
						}
					}
				}
				JOINT Shoulder_L
				{
					OFFSET 12.9942 -0.242716 4.98039
					CHANNELS 6 Xposition Yposition Zposition Zrotation Xrotation Yrotation 
					JOINT UpperArm_L
					{
						OFFSET 5.34809 0.0 0.0
						CHANNELS 6 Xposition Yposition Zposition Zrotation Xrotation Yrotation 
						JOINT LowerArm_L
						{
							OFFSET 24.3286 1.87007e-05 0.0
							CHANNELS 6 Xposition Yposition Zposition Zrotation Xrotation Yrotation 
							JOINT Hand_L
							{
								OFFSET 22.2916 0.0 0.0
								CHANNELS 6 Xposition Yposition Zposition Zrotation Xrotation Yrotation 
								End Site
								{
									OFFSET 0.0 0.0 0.0
								}
							}
						}
					}
				}
				JOINT Shoulder_R
				{
					OFFSET 12.9945 -0.242716 -4.98039
					CHANNELS 6 Xposition Yposition Zposition Zrotation Xrotation Yrotation 
					JOINT UpperArm_R
					{
						OFFSET -5.34813 0.0 0.0
						CHANNELS 6 Xposition Yposition Zposition Zrotation Xrotation Yrotation 
						JOINT LowerArm_R
						{
							OFFSET -24.3289 0.000322201 0.0
							CHANNELS 6 Xposition Yposition Zposition Zrotation Xrotation Yrotation 
							JOINT Hand_R
							{
								OFFSET -22.2915 -0.000108084 0.0
								CHANNELS 6 Xposition Yposition Zposition Zrotation Xrotation Yrotation 
								End Site
								{
									OFFSET 0.0 0.0 0.0
								}
							}
						}
					}
				}
			}
		}
		JOINT UpperLeg_L
		{
			OFFSET -2.19248 -6.46944 0.0
			CHANNELS 6 Xposition Yposition Zposition Zrotation Xrotation Yrotation 
			JOINT LowerLeg_L
			{
				OFFSET 39.0811 0.0 -1.23785e-05
				CHANNELS 6 Xposition Yposition Zposition Zrotation Xrotation Yrotation 
				JOINT Foot_L
				{
					OFFSET 40.9854 0.0 -1.26872e-05
					CHANNELS 6 Xposition Yposition Zposition Zrotation Xrotation Yrotation 
					JOINT Toes_L
					{
						OFFSET 11.7543 0.0 0.0
						CHANNELS 6 Xposition Yposition Zposition Zrotation Xrotation Yrotation 
						End Site
						{
							OFFSET 0.0 0.0 0.0
						}
					}
				}
			}
		}
		JOINT UpperLeg_R
		{
			OFFSET -2.19251 6.46944 0.0
			CHANNELS 6 Xposition Yposition Zposition Zrotation Xrotation Yrotation 
			JOINT LowerLeg_R
			{
				OFFSET -39.0811 -0.00228153 -0.0401928
				CHANNELS 6 Xposition Yposition Zposition Zrotation Xrotation Yrotation 
				JOINT Foot_R
				{
					OFFSET -40.9854 0.0 0.0
					CHANNELS 6 Xposition Yposition Zposition Zrotation Xrotation Yrotation 
					JOINT Toes_R
					{
						OFFSET -11.7543 0.0 0.0
						CHANNELS 6 Xposition Yposition Zposition Zrotation Xrotation Yrotation 
						End Site
						{
							OFFSET 0.0 0.0 0.0
						}
					}
				}
			}
		}
	}
}
MOTION
Frames:	8
Frame Time:	0.0333333
0.000000 0.000000 0.000000 0.000000 0.000000 -0.000000 -4.075680 91.614700 469.226000 -85.974100 -6.909340 165.596000 15.735700 0.000005 -0.000001 62.569300 79.793200 -59.139800 8.984550 -0.406207 -0.000000 10.744200 -9.249950 7.738970 16.377300 -0.000001 -0.000001 5.121080 -1.762590 -1.657070 6.456720 -0.000001 -0.000000 -4.586060 3.127320 0.539485 12.994200 -0.242716 4.980390 -86.596900 -10.699900 -72.240900 5.348090 -0.000007 -0.000001 -56.225500 22.462600 -26.179000 24.328600 0.000019 0.000005 -10.214100 -1.600240 -81.188400 22.291600 -0.000001 0.000005 4.753370 5.617100 -12.421000 12.994500 -0.242716 -4.980390 91.827100 -4.040680 -65.642800 -5.348130 -0.000001 -0.000004 -67.206300 31.700800 14.934500 -24.328900 0.000322 -0.000009 -9.294810 -6.072150 -57.120600 -22.291500 -0.000108 -0.000004 -1.948930 5.505550 -6.757510 -2.192480 -6.469440 -0.000000 -169.972000 -4.218010 5.327950 39.081100 -0.000007 -0.000012 0.027550 -0.065142 22.925000 40.985400 -0.000006 -0.000013 -6.074810 1.670290 -30.129000 11.754300 -0.000000 0.000003 -0.001668 -0.024482 -17.572300 -2.192510 6.469440 -0.000001 -165.528000 16.999800 143.049000 -39.081100 -0.002282 -0.040193 -0.006980 0.028811 19.675700 -40.985400 0.000008 0.000006 -8.101500 -3.032490 -69.230200 -11.754300 -0.000006 -0.000006 -0.022741 -0.182023 -24.015400
0.000000 0.000000 0.000000 0.000000 0.000000 -0.000000 -3.765720 89.550300 462.812000 -85.814900 -7.078350 166.093000 15.735700 0.000005 -0.000001 64.042200 79.972600 -60.346500 8.984550 -0.406207 -0.000000 10.645900 -8.625470 8.203800 16.377300 -0.000001 -0.000001 5.622140 -2.264370 -2.232290 6.456720 -0.000001 -0.000000 -5.075350 2.917000 0.515410 12.994200 -0.242716 4.980390 -87.010600 -9.521660 -72.479400 5.348090 -0.000007 -0.000001 -58.044300 24.039000 -22.378200 24.328600 0.000019 0.000005 -11.958600 -1.655990 -82.230400 22.291600 -0.000001 0.000005 5.511200 5.624210 -12.913600 12.994500 -0.242716 -4.980390 90.920800 -2.019550 -65.483400 -5.348130 -0.000001 -0.000004 -65.285900 31.536000 11.740700 -24.328900 0.000322 -0.000009 -9.819740 -6.166750 -58.171200 -22.291500 -0.000108 -0.000004 -1.717930 5.512420 -7.041960 -2.192480 -6.469440 -0.000000 -171.304000 2.774700 5.046260 39.081100 -0.000007 -0.000012 -0.009733 0.016041 31.248200 40.985400 -0.000006 -0.000013 -4.895910 -2.892490 -31.815100 11.754300 -0.000000 0.000003 -0.002744 -0.037683 -18.109200 -2.192510 6.469440 -0.000001 -164.144000 15.734300 139.023000 -39.081100 -0.002282 -0.040193 0.114430 -0.194978 29.681000 -40.985400 0.000008 0.000006 6.705490 -9.119920 -60.098900 -11.754300 -0.000006 -0.000006 -0.036156 -0.244410 -26.602600
0.000000 0.000000 0.000000 0.000000 0.000000 -0.000000 -3.564410 86.841800 456.220000 -85.497600 -6.638480 168.092000 15.735700 0.000005 -0.000001 68.735600 79.754700 -64.734500 8.984550 -0.406207 -0.000000 11.665400 -7.235140 8.748490 16.377300 -0.000001 -0.000001 4.586230 -2.622350 -2.486130 6.456720 -0.000001 -0.000000 -4.574240 2.144380 -0.441727 12.994200 -0.242716 4.980390 -87.723600 -7.207920 -72.419300 5.348090 -0.000007 -0.000001 -58.740600 26.291400 -19.469400 24.328600 0.000019 0.000005 -13.163800 -2.243010 -80.500800 22.291600 -0.000001 0.000005 5.137240 5.630390 -13.366900 12.994500 -0.242716 -4.980390 90.036300 -0.080363 -65.838600 -5.348130 -0.000001 -0.000004 -62.871500 30.807200 7.329340 -24.328900 0.000322 -0.000009 -10.754500 -6.706980 -58.409800 -22.291500 -0.000108 -0.000004 -0.657277 5.521030 -7.402640 -2.192480 -6.469440 -0.000000 -171.950000 4.540740 3.178710 39.081100 -0.000007 -0.000012 -0.046904 0.046722 45.113100 40.985400 -0.000006 -0.000013 -2.621780 -2.947360 -33.558000 11.754300 -0.000000 0.000003 -0.004527 -0.056818 -18.888300 -2.192510 6.469440 -0.000001 -167.715000 9.760430 138.424000 -39.081100 -0.002282 -0.040193 -0.231137 0.238721 44.477300 -40.985400 0.000008 0.000006 2.138470 -14.647500 -67.114200 -11.754300 -0.000006 -0.000006 -0.024175 -0.189404 -24.320200
0.000000 0.000000 0.000000 0.000000 0.000000 -0.000000 -3.335160 84.326200 450.209000 -81.899900 -4.037380 171.357000 15.735700 0.000005 -0.000001 78.041100 78.818800 -72.914800 8.984550 -0.406207 -0.000000 14.355400 -4.283550 10.801500 16.377300 -0.000001 -0.000001 3.246940 -1.680220 -2.086610 6.456720 -0.000001 -0.000000 -4.887140 1.532680 -2.114770 12.994200 -0.242716 4.980390 -88.567800 -4.315800 -71.618800 5.348090 -0.000007 -0.000001 -59.966000 28.284700 -16.010400 24.328600 0.000019 0.000005 -12.287300 -3.245720 -75.424800 22.291600 -0.000001 0.000005 4.612640 5.635020 -13.721100 12.994500 -0.242716 -4.980390 89.306900 1.687550 -67.659100 -5.348130 -0.000001 -0.000004 -57.605200 31.963800 -1.727970 -24.328900 0.000322 -0.000009 -12.285400 -8.032270 -57.312400 -22.291500 -0.000108 -0.000004 1.284620 5.535730 -8.046240 -2.192480 -6.469440 -0.000000 -169.700000 2.998520 -1.593590 39.081100 -0.000007 -0.000012 -0.109994 0.054352 63.706500 40.985400 -0.000006 -0.000013 -1.277440 -3.046950 -35.338000 11.754300 -0.000000 0.000003 -0.005995 -0.070802 -19.458300 -2.192510 6.469440 -0.000001 -165.040000 8.149490 142.107000 -39.081100 -0.002282 -0.040193 -0.481938 0.365078 53.040500 -40.985400 0.000008 0.000006 1.669880 -14.045100 -75.732000 -11.754300 -0.000006 -0.000006 -0.015493 -0.140902 -22.322700
0.000000 0.000000 0.000000 0.000000 0.000000 -0.000000 -3.229720 82.221700 444.848000 -80.777800 -1.671590 172.596000 15.735700 0.000005 -0.000001 82.893200 78.376900 -77.636700 8.984550 -0.406207 -0.000000 15.450000 -2.483960 10.861100 16.377300 -0.000001 -0.000001 2.965150 -1.010810 -1.442170 6.456720 -0.000001 -0.000000 -4.636270 1.058680 -2.394740 12.994200 -0.242716 4.980390 -88.750200 -3.516540 -70.421000 5.348090 -0.000007 -0.000001 -62.390400 30.894700 -12.430100 24.328600 0.000019 0.000005 -9.780850 -4.394620 -66.025900 22.291600 -0.000001 0.000005 4.035960 5.636320 -13.826500 12.994500 -0.242716 -4.980390 88.681600 3.380130 -68.673800 -5.348130 -0.000001 -0.000004 -48.191100 35.316200 -15.654600 -24.328900 0.000322 -0.000009 -12.394300 -8.369390 -56.479800 -22.291500 -0.000108 -0.000004 1.753590 5.552780 -8.840160 -2.192480 -6.469440 -0.000000 -170.073000 1.622280 -10.696700 39.081100 -0.000007 -0.000012 -0.262661 0.038896 81.578300 40.985400 -0.000006 -0.000013 2.584030 -4.422600 -38.209600 11.754300 -0.000000 0.000003 -0.006957 -0.079299 -19.805000 -2.192510 6.469440 -0.000001 -164.509000 8.190920 145.082000 -39.081100 -0.002282 -0.040193 -0.603026 0.366889 58.819000 -40.985400 0.000008 0.000006 0.786442 -12.609600 -82.892500 -11.754300 -0.000006 -0.000006 -0.009143 -0.097120 -20.529100
0.000000 0.000000 0.000000 0.000000 0.000000 -0.000000 -3.353110 80.791900 439.746000 -80.649200 1.176220 173.074000 15.735700 0.000005 -0.000001 87.741100 78.426700 -82.766100 8.984550 -0.406207 -0.000000 15.407800 -0.568036 10.035800 16.377300 -0.000001 -0.000001 3.554190 -0.711915 -1.075920 6.456720 -0.000001 -0.000000 -4.006790 0.296749 -2.732050 12.994200 -0.242716 4.980390 -88.607600 -3.720000 -69.462900 5.348090 -0.000007 -0.000001 -65.201100 33.999200 -7.714260 24.328600 0.000019 0.000005 -8.217530 -5.781670 -55.101400 22.291600 -0.000001 0.000005 2.026420 5.641290 -14.213200 12.994500 -0.242716 -4.980390 88.548500 3.893890 -69.538000 -5.348130 -0.000001 -0.000004 -38.173400 36.072600 -28.715900 -24.328900 0.000322 -0.000009 -12.642100 -7.525430 -59.712600 -22.291500 -0.000108 -0.000004 2.595710 5.569430 -9.658580 -2.192480 -6.469440 -0.000000 -171.877000 -0.288798 -21.282500 39.081100 -0.000007 -0.000012 -0.475658 -0.044520 95.348100 40.985400 -0.000006 -0.000013 9.140520 -7.035940 -40.950900 11.754300 -0.000000 0.000003 -0.005744 -0.068504 -19.364600 -2.192510 6.469440 -0.000001 -165.277000 8.872600 148.766000 -39.081100 -0.002282 -0.040193 -0.387100 0.209554 61.768200 -40.985400 0.000008 0.000006 1.639130 -10.354700 -88.287200 -11.754300 -0.000006 -0.000006 -0.005628 -0.067422 -19.316800
0.000000 0.000000 0.000000 0.000000 0.000000 -0.000000 -3.653400 80.312600 434.331000 -81.071300 4.212440 173.086000 15.735700 0.000005 -0.000001 92.139000 78.576900 -87.856500 8.984550 -0.406207 -0.000000 15.038500 1.113050 8.424500 16.377300 -0.000001 -0.000001 3.576410 -0.368062 -0.406030 6.456720 -0.000001 -0.000000 -3.500100 -0.256567 -3.108280 12.994200 -0.242716 4.980390 -88.698800 -3.342060 -68.711100 5.348090 -0.000007 -0.000001 -66.524300 35.129400 -0.346765 24.328600 0.000019 0.000005 -6.236630 -5.358160 -49.480200 22.291600 -0.000001 0.000005 -1.515360 5.625460 -12.991200 12.994500 -0.242716 -4.980390 88.846900 3.269670 -70.563800 -5.348130 -0.000001 -0.000004 -31.491700 33.880600 -39.115800 -24.328900 0.000322 -0.000009 -15.800000 -7.792910 -64.392900 -22.291500 -0.000108 -0.000004 3.229540 5.573450 -9.866240 -2.192480 -6.469440 -0.000000 -173.977000 -1.632700 -31.657700 39.081100 -0.000007 -0.000012 -0.547319 -0.130062 103.368000 40.985400 -0.000006 -0.000013 12.103400 -9.263130 -45.504300 11.754300 -0.000000 0.000003 -0.005852 -0.069497 -19.405100 -2.192510 6.469440 -0.000001 -167.245000 9.383460 153.949000 -39.081100 -0.002282 -0.040193 0.017562 -0.007890 61.229900 -40.985400 0.000008 0.000006 3.192910 -8.176340 -92.076100 -11.754300 -0.000006 -0.000006 -0.004195 -0.053458 -18.747700
0.000000 0.000000 0.000000 0.000000 0.000000 -0.000000 -4.297310 81.146300 428.256000 -83.492900 7.524020 172.604000 15.735700 0.000005 -0.000001 96.765300 78.794600 -93.983500 8.984550 -0.406207 -0.000000 14.438600 2.769320 5.216080 16.377300 -0.000001 -0.000001 3.214570 -0.323019 0.307778 6.456720 -0.000001 -0.000000 -3.432450 -1.139530 -2.956430 12.994200 -0.242716 4.980390 -88.992700 -2.454890 -67.679600 5.348090 -0.000007 -0.000001 -65.103000 36.932700 6.319680 24.328600 0.000019 0.000005 -3.920130 -3.406890 -49.069000 22.291600 -0.000001 0.000005 -2.471520 5.626360 -13.065700 12.994500 -0.242716 -4.980390 89.277500 2.113700 -71.124800 -5.348130 -0.000001 -0.000004 -30.209100 29.840900 -44.996600 -24.328900 0.000322 -0.000009 -17.041500 -6.981620 -68.367100 -22.291500 -0.000108 -0.000004 3.130250 5.570320 -9.705790 -2.192480 -6.469440 -0.000000 -177.292000 -2.282400 -40.220500 39.081100 -0.000007 -0.000012 -0.404640 -0.100865 103.998000 40.985400 -0.000006 -0.000013 10.687300 -8.045480 -51.140900 11.754300 -0.000000 0.000003 -0.006593 -0.076137 -19.675900 -2.192510 6.469440 -0.000001 -172.243000 9.681170 160.521000 -39.081100 -0.002282 -0.040193 0.169112 -0.109555 56.559300 -40.985400 0.000008 0.000006 3.715210 -4.875670 -93.346500 -11.754300 -0.000006 -0.000006 -0.003840 -0.049768 -18.597400
